<svg width="120" height="595" viewBox="0 0 120 595" fill="none" xmlns="http://www.w3.org/2000/svg">
  <!-- Enhanced geometric pixel patterns for right side with white accents -->
  
  <!-- Pattern 1: Enhanced arrow pointing right with white -->
  <rect x="15" y="25" width="6" height="6" fill="#FFFFFF" opacity="0.9"/>
  <rect x="23" y="25" width="6" height="6" fill="#00FF00" opacity="0.9"/>
  <rect x="23" y="19" width="6" height="6" fill="#00FF00" opacity="0.7"/>
  <rect x="23" y="31" width="6" height="6" fill="#00FF00" opacity="0.7"/>
  <rect x="31" y="13" width="6" height="6" fill="#FFFFFF" opacity="0.9"/>
  <rect x="31" y="37" width="6" height="6" fill="#FFFFFF" opacity="0.9"/>
  <rect x="39" y="7" width="6" height="6" fill="#00FF00" opacity="0.6"/>
  <rect x="39" y="43" width="6" height="6" fill="#00FF00" opacity="0.6"/>
  <rect x="47" y="25" width="6" height="6" fill="#00FF00" opacity="0.8"/>
  
  <!-- Additional arrow details -->
  <rect x="35" y="25" width="4" height="4" fill="#00FF00" opacity="0.6"/>
  <rect x="19" y="15" width="3" height="3" fill="#FFFFFF" opacity="0.7"/>
  <rect x="19" y="35" width="3" height="3" fill="#FFFFFF" opacity="0.7"/>
  
  <!-- Pattern 2: Dense cube with white highlights -->
  <rect x="65" y="75" width="10" height="10" fill="#FFFFFF" opacity="0.9"/>
  <rect x="77" y="75" width="10" height="10" fill="#00FF00" opacity="0.6"/>
  <rect x="89" y="75" width="10" height="10" fill="#00FF00" opacity="0.8"/>
  <rect x="65" y="87" width="10" height="10" fill="#00FF00" opacity="0.6"/>
  <rect x="77" y="87" width="10" height="10" fill="#00FF00" opacity="0.9"/>
  <rect x="89" y="87" width="10" height="10" fill="#FFFFFF" opacity="0.8"/>
  <rect x="65" y="99" width="10" height="10" fill="#00FF00" opacity="0.8"/>
  <rect x="77" y="99" width="10" height="10" fill="#FFFFFF" opacity="0.7"/>
  <rect x="89" y="99" width="10" height="10" fill="#00FF00" opacity="0.6"/>
  
  <!-- Extra cube pixels -->
  <rect x="60" y="80" width="4" height="4" fill="#FFFFFF" opacity="0.7"/>
  <rect x="101" y="92" width="4" height="4" fill="#00FF00" opacity="0.6"/>
  
  <!-- Pattern 3: Dense horizontal bars with white -->
  <rect x="20" y="135" width="24" height="4" fill="#00FF00" opacity="0.8"/>
  <rect x="25" y="142" width="28" height="4" fill="#FFFFFF" opacity="0.9"/>
  <rect x="15" y="149" width="35" height="4" fill="#00FF00" opacity="0.9"/>
  <rect x="20" y="156" width="32" height="4" fill="#00FF00" opacity="0.6"/>
  <rect x="25" y="163" width="28" height="4" fill="#FFFFFF" opacity="0.8"/>
  <rect x="20" y="170" width="24" height="4" fill="#00FF00" opacity="0.8"/>
  
  <!-- Additional bar details -->
  <rect x="52" y="135" width="6" height="4" fill="#FFFFFF" opacity="0.7"/>
  <rect x="12" y="156" width="6" height="4" fill="#FFFFFF" opacity="0.6"/>
  <rect x="48" y="170" width="8" height="4" fill="#00FF00" opacity="0.6"/>
  
  <!-- Pattern 4: Enhanced plus signs with white -->
  <rect x="70" y="195" width="4" height="14" fill="#FFFFFF" opacity="0.9"/>
  <rect x="66" y="199" width="12" height="4" fill="#FFFFFF" opacity="0.9"/>
  
  <rect x="90" y="210" width="4" height="14" fill="#00FF00" opacity="0.8"/>
  <rect x="86" y="214" width="12" height="4" fill="#00FF00" opacity="0.8"/>
  
  <rect x="75" y="230" width="4" height="12" fill="#00FF00" opacity="0.7"/>
  <rect x="71" y="234" width="12" height="4" fill="#FFFFFF" opacity="0.8"/>
  
  <!-- Extra plus elements -->
  <rect x="62" y="203" width="3" height="3" fill="#00FF00" opacity="0.6"/>
  <rect x="100" y="218" width="3" height="3" fill="#FFFFFF" opacity="0.7"/>
  
  <!-- Pattern 5: Enhanced diamond with white center -->
  <rect x="30" y="255" width="6" height="6" fill="#00FF00" opacity="0.9"/>
  <rect x="24" y="263" width="6" height="6" fill="#FFFFFF" opacity="0.7"/>
  <rect x="36" y="263" width="6" height="6" fill="#FFFFFF" opacity="0.7"/>
  <rect x="18" y="271" width="6" height="6" fill="#00FF00" opacity="0.6"/>
  <rect x="30" y="271" width="6" height="6" fill="#FFFFFF" opacity="0.9"/>
  <rect x="42" y="271" width="6" height="6" fill="#00FF00" opacity="0.6"/>
  <rect x="24" y="279" width="6" height="6" fill="#FFFFFF" opacity="0.7"/>
  <rect x="36" y="279" width="6" height="6" fill="#FFFFFF" opacity="0.7"/>
  <rect x="30" y="287" width="6" height="6" fill="#00FF00" opacity="0.9"/>
  
  <!-- Additional diamond pixels -->
  <rect x="48" y="271" width="5" height="5" fill="#00FF00" opacity="0.5"/>
  <rect x="12" y="271" width="5" height="5" fill="#FFFFFF" opacity="0.6"/>
  
  <!-- Pattern 6: Enhanced tetris blocks with white -->
  <rect x="60" y="320" width="8" height="8" fill="#FFFFFF" opacity="0.9"/>
  <rect x="60" y="330" width="8" height="8" fill="#00FF00" opacity="0.8"/>
  <rect x="70" y="330" width="8" height="8" fill="#FFFFFF" opacity="0.8"/>
  <rect x="80" y="330" width="8" height="8" fill="#00FF00" opacity="0.8"/>
  <rect x="90" y="330" width="8" height="8" fill="#00FF00" opacity="0.6"/>
  
  <rect x="65" y="342" width="8" height="8" fill="#00FF00" opacity="0.7"/>
  <rect x="75" y="342" width="8" height="8" fill="#00FF00" opacity="0.9"/>
  <rect x="85" y="342" width="8" height="8" fill="#FFFFFF" opacity="0.8"/>
  
  <!-- Extra tetris pieces -->
  <rect x="55" y="335" width="4" height="4" fill="#00FF00" opacity="0.6"/>
  <rect x="95" y="345" width="5" height="5" fill="#FFFFFF" opacity="0.7"/>
  
  <!-- Pattern 7: Dense grid fade with white -->
  <rect x="15" y="375" width="6" height="6" fill="#FFFFFF" opacity="0.9"/>
  <rect x="25" y="375" width="6" height="6" fill="#00FF00" opacity="0.7"/>
  <rect x="35" y="375" width="6" height="6" fill="#00FF00" opacity="0.5"/>
  <rect x="45" y="375" width="6" height="6" fill="#00FF00" opacity="0.3"/>
  
  <rect x="15" y="385" width="6" height="6" fill="#00FF00" opacity="0.7"/>
  <rect x="25" y="385" width="6" height="6" fill="#FFFFFF" opacity="0.8"/>
  <rect x="35" y="385" width="6" height="6" fill="#00FF00" opacity="0.5"/>
  <rect x="45" y="385" width="6" height="6" fill="#FFFFFF" opacity="0.6"/>
  
  <rect x="15" y="395" width="6" height="6" fill="#00FF00" opacity="0.5"/>
  <rect x="25" y="395" width="6" height="6" fill="#00FF00" opacity="0.3"/>
  <rect x="35" y="395" width="6" height="6" fill="#FFFFFF" opacity="0.7"/>
  <rect x="45" y="395" width="6" height="6" fill="#00FF00" opacity="0.4"/>
  
  <rect x="15" y="405" width="6" height="6" fill="#FFFFFF" opacity="0.5"/>
  <rect x="25" y="405" width="6" height="6" fill="#00FF00" opacity="0.4"/>
  <rect x="35" y="405" width="6" height="6" fill="#00FF00" opacity="0.5"/>
  
  <!-- Pattern 8: Enhanced brackets with white -->
  <rect x="65" y="435" width="4" height="4" fill="#FFFFFF" opacity="0.9"/>
  <rect x="65" y="441" width="4" height="4" fill="#FFFFFF" opacity="0.9"/>
  <rect x="65" y="447" width="4" height="4" fill="#FFFFFF" opacity="0.9"/>
  <rect x="65" y="453" width="4" height="4" fill="#FFFFFF" opacity="0.9"/>
  <rect x="65" y="459" width="4" height="4" fill="#FFFFFF" opacity="0.9"/>
  <rect x="71" y="435" width="10" height="4" fill="#00FF00" opacity="0.7"/>
  <rect x="71" y="459" width="10" height="4" fill="#00FF00" opacity="0.7"/>
  
  <rect x="85" y="435" width="4" height="4" fill="#00FF00" opacity="0.9"/>
  <rect x="85" y="441" width="4" height="4" fill="#00FF00" opacity="0.9"/>
  <rect x="85" y="447" width="4" height="4" fill="#00FF00" opacity="0.9"/>
  <rect x="85" y="453" width="4" height="4" fill="#00FF00" opacity="0.9"/>
  <rect x="85" y="459" width="4" height="4" fill="#00FF00" opacity="0.9"/>
  <rect x="75" y="435" width="8" height="4" fill="#FFFFFF" opacity="0.7"/>
  <rect x="75" y="459" width="8" height="4" fill="#FFFFFF" opacity="0.7"/>
  
  <!-- Pattern 9: Enhanced wave with white -->
  <rect x="20" y="488" width="5" height="5" fill="#00FF00" opacity="0.8"/>
  <rect x="28" y="483" width="5" height="5" fill="#FFFFFF" opacity="0.9"/>
  <rect x="36" y="478" width="5" height="5" fill="#00FF00" opacity="0.9"/>
  <rect x="44" y="473" width="5" height="5" fill="#FFFFFF" opacity="0.9"/>
  <rect x="52" y="478" width="5" height="5" fill="#00FF00" opacity="0.7"/>
  <rect x="60" y="483" width="5" height="5" fill="#00FF00" opacity="0.8"/>
  <rect x="68" y="488" width="5" height="5" fill="#FFFFFF" opacity="0.8"/>
  <rect x="76" y="493" width="5" height="5" fill="#00FF00" opacity="0.6"/>
  
  <!-- Second wave layer -->
  <rect x="24" y="498" width="5" height="5" fill="#FFFFFF" opacity="0.7"/>
  <rect x="32" y="503" width="5" height="5" fill="#00FF00" opacity="0.8"/>
  <rect x="40" y="498" width="5" height="5" fill="#00FF00" opacity="0.7"/>
  <rect x="48" y="493" width="5" height="5" fill="#FFFFFF" opacity="0.8"/>
  <rect x="56" y="498" width="5" height="5" fill="#00FF00" opacity="0.6"/>
  <rect x="64" y="503" width="5" height="5" fill="#00FF00" opacity="0.7"/>
  
  <!-- Pattern 10: Enhanced corner blocks with white -->
  <rect x="75" y="540" width="10" height="6" fill="#FFFFFF" opacity="0.9"/>
  <rect x="87" y="540" width="10" height="6" fill="#00FF00" opacity="0.7"/>
  <rect x="99" y="540" width="10" height="6" fill="#00FF00" opacity="0.6"/>
  <rect x="75" y="548" width="10" height="6" fill="#00FF00" opacity="0.7"/>
  <rect x="87" y="548" width="10" height="6" fill="#FFFFFF" opacity="0.9"/>
  <rect x="99" y="548" width="10" height="6" fill="#00FF00" opacity="0.8"/>
  <rect x="75" y="556" width="10" height="6" fill="#00FF00" opacity="0.9"/>
  <rect x="87" y="556" width="10" height="6" fill="#00FF00" opacity="0.7"/>
  <rect x="99" y="556" width="10" height="6" fill="#FFFFFF" opacity="0.8"/>
  <rect x="75" y="564" width="34" height="4" fill="#00FF00" opacity="0.8"/>
  
  <!-- Additional fill elements throughout -->
  <rect x="100" y="15" width="5" height="5" fill="#FFFFFF" opacity="0.7"/>
  <rect x="10" y="60" width="6" height="6" fill="#00FF00" opacity="0.6"/>
  <rect x="55" y="120" width="4" height="4" fill="#FFFFFF" opacity="0.8"/>
  <rect x="105" y="180" width="5" height="5" fill="#00FF00" opacity="0.7"/>
  <rect x="8" y="245" width="6" height="6" fill="#FFFFFF" opacity="0.7"/>
  <rect x="55" y="305" width="4" height="4" fill="#00FF00" opacity="0.6"/>
  <rect x="100" y="365" width="5" height="5" fill="#FFFFFF" opacity="0.7"/>
  <rect x="12" y="425" width="6" height="6" fill="#00FF00" opacity="0.7"/>
  <rect x="105" y="515" width="4" height="4" fill="#FFFFFF" opacity="0.8"/>
  <rect x="5" y="580" width="5" height="5" fill="#00FF00" opacity="0.7"/>
  <rect x="110" y="590" width="5" height="5" fill="#FFFFFF" opacity="0.9"/>
</svg>