<svg width="120" height="595" viewBox="0 0 120 595" fill="none" xmlns="http://www.w3.org/2000/svg">
  <!-- Enhanced geometric pixel patterns with white accents -->
  
  <!-- Pattern 1: Diagonal lines with white accents -->
  <rect x="10" y="20" width="8" height="8" fill="#00FF00" opacity="0.8"/>
  <rect x="20" y="30" width="8" height="8" fill="#FFFFFF" opacity="0.9"/>
  <rect x="30" y="40" width="8" height="8" fill="#00FF00" opacity="0.8"/>
  <rect x="40" y="50" width="8" height="8" fill="#00FF00" opacity="0.6"/>
  <rect x="50" y="60" width="6" height="6" fill="#FFFFFF" opacity="0.7"/>
  <rect x="5" y="35" width="5" height="5" fill="#00FF00" opacity="0.5"/>
  <rect x="15" y="45" width="5" height="5" fill="#00FF00" opacity="0.7"/>
  
  <!-- Pattern 2: Dense square cluster with white -->
  <rect x="60" y="75" width="6" height="6" fill="#00FF00" opacity="0.9"/>
  <rect x="68" y="75" width="6" height="6" fill="#FFFFFF" opacity="0.8"/>
  <rect x="76" y="75" width="6" height="6" fill="#00FF00" opacity="0.9"/>
  <rect x="84" y="75" width="6" height="6" fill="#00FF00" opacity="0.6"/>
  <rect x="60" y="83" width="6" height="6" fill="#00FF00" opacity="0.7"/>
  <rect x="68" y="83" width="6" height="6" fill="#00FF00" opacity="0.5"/>
  <rect x="76" y="83" width="6" height="6" fill="#FFFFFF" opacity="0.7"/>
  <rect x="84" y="83" width="6" height="6" fill="#00FF00" opacity="0.8"/>
  <rect x="60" y="91" width="6" height="6" fill="#FFFFFF" opacity="0.9"/>
  <rect x="68" y="91" width="6" height="6" fill="#00FF00" opacity="0.7"/>
  <rect x="76" y="91" width="6" height="6" fill="#00FF00" opacity="0.9"/>
  <rect x="84" y="91" width="6" height="6" fill="#00FF00" opacity="0.6"/>
  <rect x="60" y="99" width="6" height="6" fill="#00FF00" opacity="0.8"/>
  <rect x="68" y="99" width="6" height="6" fill="#00FF00" opacity="0.6"/>
  <rect x="76" y="99" width="6" height="6" fill="#00FF00" opacity="0.8"/>
  
  <!-- Small accent dots around cluster -->
  <circle cx="55" cy="78" r="2" fill="#FFFFFF" opacity="0.7"/>
  <circle cx="90" cy="88" r="2" fill="#FFFFFF" opacity="0.6"/>
  <circle cx="55" cy="102" r="2" fill="#00FF00" opacity="0.7"/>
  
  <!-- Pattern 3: Vertical bars with white highlights -->
  <rect x="10" y="130" width="4" height="16" fill="#00FF00" opacity="0.8"/>
  <rect x="18" y="125" width="4" height="24" fill="#FFFFFF" opacity="0.8"/>
  <rect x="26" y="120" width="4" height="30" fill="#00FF00" opacity="0.8"/>
  <rect x="34" y="125" width="4" height="24" fill="#00FF00" opacity="0.6"/>
  <rect x="42" y="130" width="4" height="16" fill="#FFFFFF" opacity="0.7"/>
  <rect x="50" y="135" width="4" height="12" fill="#00FF00" opacity="0.8"/>
  
  <!-- Extra small bars -->
  <rect x="14" y="155" width="3" height="8" fill="#00FF00" opacity="0.5"/>
  <rect x="38" y="153" width="3" height="10" fill="#00FF00" opacity="0.6"/>
  
  <!-- Pattern 4: Enhanced L-shape with white -->
  <rect x="65" y="175" width="8" height="8" fill="#FFFFFF" opacity="0.9"/>
  <rect x="65" y="185" width="8" height="8" fill="#00FF00" opacity="0.7"/>
  <rect x="65" y="195" width="8" height="8" fill="#00FF00" opacity="0.9"/>
  <rect x="75" y="195" width="8" height="8" fill="#FFFFFF" opacity="0.8"/>
  <rect x="85" y="195" width="8" height="8" fill="#00FF00" opacity="0.9"/>
  <rect x="95" y="195" width="8" height="8" fill="#00FF00" opacity="0.6"/>
  
  <!-- Additional scattered pixels -->
  <rect x="60" y="205" width="5" height="5" fill="#00FF00" opacity="0.6"/>
  <rect x="100" y="180" width="5" height="5" fill="#FFFFFF" opacity="0.7"/>
  
  <!-- Pattern 5: Dense dots grid with white -->
  <circle cx="15" cy="240" r="3" fill="#00FF00" opacity="0.8"/>
  <circle cx="28" cy="240" r="3" fill="#FFFFFF" opacity="0.9"/>
  <circle cx="41" cy="240" r="3" fill="#00FF00" opacity="0.8"/>
  <circle cx="54" cy="240" r="3" fill="#00FF00" opacity="0.6"/>
  <circle cx="67" cy="240" r="3" fill="#FFFFFF" opacity="0.7"/>
  
  <circle cx="15" cy="253" r="3" fill="#FFFFFF" opacity="0.7"/>
  <circle cx="28" cy="253" r="3" fill="#00FF00" opacity="0.8"/>
  <circle cx="41" cy="253" r="3" fill="#FFFFFF" opacity="0.8"/>
  <circle cx="54" cy="253" r="3" fill="#00FF00" opacity="0.6"/>
  <circle cx="67" cy="253" r="3" fill="#00FF00" opacity="0.8"/>
  
  <circle cx="15" cy="266" r="3" fill="#00FF00" opacity="0.8"/>
  <circle cx="28" cy="266" r="3" fill="#00FF00" opacity="0.6"/>
  <circle cx="41" cy="266" r="3" fill="#00FF00" opacity="0.8"/>
  <circle cx="54" cy="266" r="3" fill="#FFFFFF" opacity="0.9"/>
  <circle cx="67" cy="266" r="3" fill="#00FF00" opacity="0.6"/>
  
  <circle cx="15" cy="279" r="3" fill="#00FF00" opacity="0.6"/>
  <circle cx="28" cy="279" r="3" fill="#FFFFFF" opacity="0.7"/>
  <circle cx="41" cy="279" r="3" fill="#00FF00" opacity="0.7"/>
  <circle cx="54" cy="279" r="3" fill="#00FF00" opacity="0.8"/>
  
  <!-- Pattern 6: Enhanced zigzag with white -->
  <rect x="80" y="305" width="6" height="6" fill="#FFFFFF" opacity="0.9"/>
  <rect x="88" y="313" width="6" height="6" fill="#00FF00" opacity="0.7"/>
  <rect x="96" y="321" width="6" height="6" fill="#FFFFFF" opacity="0.9"/>
  <rect x="104" y="329" width="6" height="6" fill="#00FF00" opacity="0.7"/>
  <rect x="96" y="337" width="6" height="6" fill="#00FF00" opacity="0.9"/>
  <rect x="88" y="345" width="6" height="6" fill="#FFFFFF" opacity="0.8"/>
  <rect x="80" y="353" width="6" height="6" fill="#00FF00" opacity="0.7"/>
  
  <!-- Extra zigzag elements -->
  <rect x="75" y="310" width="4" height="4" fill="#00FF00" opacity="0.5"/>
  <rect x="92" y="325" width="4" height="4" fill="#00FF00" opacity="0.6"/>
  
  <!-- Pattern 7: Enhanced cross with white center -->
  <rect x="30" y="365" width="8" height="8" fill="#00FF00" opacity="0.8"/>
  <rect x="22" y="373" width="8" height="8" fill="#00FF00" opacity="0.6"/>
  <rect x="30" y="373" width="8" height="8" fill="#FFFFFF" opacity="0.9"/>
  <rect x="38" y="373" width="8" height="8" fill="#00FF00" opacity="0.6"/>
  <rect x="30" y="381" width="8" height="8" fill="#00FF00" opacity="0.8"/>
  
  <!-- Additional cross elements -->
  <rect x="46" y="373" width="6" height="6" fill="#FFFFFF" opacity="0.7"/>
  <rect x="14" y="373" width="6" height="6" fill="#FFFFFF" opacity="0.6"/>
  
  <!-- Pattern 8: Dense scattered pixels with white -->
  <rect x="10" y="410" width="5" height="5" fill="#00FF00" opacity="0.7"/>
  <rect x="20" y="415" width="5" height="5" fill="#FFFFFF" opacity="0.9"/>
  <rect x="30" y="408" width="5" height="5" fill="#00FF00" opacity="0.9"/>
  <rect x="40" y="418" width="5" height="5" fill="#00FF00" opacity="0.6"/>
  <rect x="50" y="412" width="5" height="5" fill="#FFFFFF" opacity="0.8"/>
  <rect x="60" y="420" width="5" height="5" fill="#00FF00" opacity="0.8"/>
  <rect x="70" y="415" width="5" height="5" fill="#00FF00" opacity="0.7"/>
  <rect x="80" y="410" width="5" height="5" fill="#FFFFFF" opacity="0.7"/>
  
  <rect x="15" y="428" width="5" height="5" fill="#00FF00" opacity="0.7"/>
  <rect x="25" y="432" width="5" height="5" fill="#00FF00" opacity="0.9"/>
  <rect x="35" y="425" width="5" height="5" fill="#FFFFFF" opacity="0.8"/>
  <rect x="45" y="435" width="5" height="5" fill="#00FF00" opacity="0.7"/>
  <rect x="55" y="430" width="5" height="5" fill="#00FF00" opacity="0.6"/>
  <rect x="65" y="438" width="5" height="5" fill="#FFFFFF" opacity="0.9"/>
  <rect x="75" y="433" width="5" height="5" fill="#00FF00" opacity="0.8"/>
  
  <rect x="18" y="445" width="4" height="4" fill="#FFFFFF" opacity="0.6"/>
  <rect x="38" y="448" width="4" height="4" fill="#00FF00" opacity="0.7"/>
  <rect x="58" y="446" width="4" height="4" fill="#00FF00" opacity="0.8"/>
  <rect x="78" y="450" width="4" height="4" fill="#FFFFFF" opacity="0.7"/>
  
  <!-- Pattern 9: Enhanced steps with white -->
  <rect x="15" y="475" width="10" height="6" fill="#00FF00" opacity="0.8"/>
  <rect x="27" y="483" width="10" height="6" fill="#FFFFFF" opacity="0.9"/>
  <rect x="39" y="491" width="10" height="6" fill="#00FF00" opacity="0.8"/>
  <rect x="51" y="499" width="10" height="6" fill="#00FF00" opacity="0.6"/>
  <rect x="63" y="507" width="10" height="6" fill="#FFFFFF" opacity="0.8"/>
  
  <!-- Additional step elements -->
  <rect x="12" y="470" width="6" height="4" fill="#FFFFFF" opacity="0.7"/>
  <rect x="45" y="486" width="6" height="4" fill="#00FF00" opacity="0.6"/>
  
  <!-- Pattern 10: Enhanced corner accent with white -->
  <rect x="65" y="535" width="14" height="5" fill="#FFFFFF" opacity="0.9"/>
  <rect x="65" y="542" width="14" height="5" fill="#00FF00" opacity="0.7"/>
  <rect x="65" y="549" width="10" height="5" fill="#00FF00" opacity="0.9"/>
  <rect x="65" y="556" width="10" height="5" fill="#FFFFFF" opacity="0.8"/>
  <rect x="65" y="563" width="6" height="5" fill="#00FF00" opacity="0.7"/>
  
  <!-- Extra corner details -->
  <rect x="81" y="535" width="8" height="5" fill="#00FF00" opacity="0.6"/>
  <rect x="77" y="549" width="6" height="5" fill="#FFFFFF" opacity="0.7"/>
  
  <!-- Additional fill elements throughout -->
  <rect x="5" y="10" width="4" height="4" fill="#00FF00" opacity="0.6"/>
  <rect x="85" y="25" width="5" height="5" fill="#FFFFFF" opacity="0.7"/>
  <rect x="12" y="115" width="4" height="4" fill="#00FF00" opacity="0.5"/>
  <rect x="95" y="230" width="5" height="5" fill="#FFFFFF" opacity="0.6"/>
  <rect x="8" y="290" width="6" height="6" fill="#00FF00" opacity="0.7"/>
  <rect x="55" y="360" width="4" height="4" fill="#FFFFFF" opacity="0.8"/>
  <rect x="90" y="455" width="5" height="5" fill="#00FF00" opacity="0.7"/>
  <rect x="5" y="520" width="6" height="6" fill="#FFFFFF" opacity="0.7"/>
  <rect x="20" y="575" width="4" height="4" fill="#00FF00" opacity="0.8"/>
  <rect x="100" y="590" width="5" height="5" fill="#FFFFFF" opacity="0.9"/>
</svg>